<?xml version="1.0" encoding="UTF-8"?>
<svg version="1.1" xmlns="http://www.w3.org/2000/svg" width="512" height="512">
<path d="M0 0 C21.89040147 -0.61078129 40.20726914 6.89781941 56.0625 21.77734375 C70.24202251 36.58706726 77.40636071 55.27480315 77.1484375 75.75390625 C76.10453375 92.57235562 70.60312176 107.00013194 59.9375 120.15234375 C59.15503906 121.14234375 58.37257813 122.13234375 57.56640625 123.15234375 C45.78740029 136.59406229 28.30035915 144.63751253 10.62988281 146.37988281 C-9.56692355 147.7019463 -28.35974784 142.40930244 -43.8984375 129.09765625 C-44.61257813 128.45570313 -45.32671875 127.81375 -46.0625 127.15234375 C-46.67351562 126.63414062 -47.28453125 126.1159375 -47.9140625 125.58203125 C-59.8235684 114.76015146 -67.89477358 97.54321751 -69.28393555 81.61303711 C-70.19536479 60.72012501 -66.15520511 41.74821912 -52.20703125 25.453125 C-38.27987891 10.51124389 -20.58112499 1.02380596 0 0 Z M-31.0625 29.15234375 C-32.05221298 29.84140556 -32.05221298 29.84140556 -33.06192017 30.54438782 C-36.74461934 33.55533042 -38.77818178 35.87455273 -39.8278656 40.59207153 C-40.13841264 44.86992715 -40.2033335 49.0813227 -40.16015625 53.3671875 C-40.16809911 54.9484632 -40.17826436 56.52972914 -40.1905365 58.11097717 C-40.20678722 61.41567359 -40.19382428 64.71863823 -40.16040039 68.02319336 C-40.12043817 72.2387505 -40.15703172 76.44956615 -40.21617985 80.66475582 C-40.25277053 83.92778903 -40.24651399 87.18970869 -40.22790337 90.45285225 C-40.22443894 92.00566096 -40.23440201 93.55856475 -40.25859261 95.11118889 C-40.3552713 102.66760275 -40.3642746 108.75290602 -34.82202148 114.46704102 C-30.02639275 118.54735478 -24.7843071 121.56652708 -19.0625 124.15234375 C-17.77859375 124.77302734 -17.77859375 124.77302734 -16.46875 125.40625 C-4.536043 130.32677717 12.38377271 130.36611505 24.33984375 125.48046875 C29.13005632 123.03133751 33.58454018 120.31446294 37.9375 117.15234375 C38.65808594 116.62898438 39.37867188 116.105625 40.12109375 115.56640625 C50.79581807 107.03495017 56.81854666 94.47996614 58.9375 81.15234375 C59.85041969 64.96557537 56.94417772 49.75521105 46.375 36.875 C37.37194097 26.79765005 24.34399872 19.27300885 10.73583984 17.93603516 C-4.79289738 17.12083468 -18.27193263 19.733065 -31.0625 29.15234375 Z " fill="#1A1918" transform="translate(433.0625,139.84765625)"/>
<path d="M0 0 C8.45959083 4.94958851 12.87834002 11.48228718 15.5625 20.765625 C16.04296875 23.1953125 16.04296875 23.1953125 16.04296875 28.1953125 C10.10296875 28.1953125 4.16296875 28.1953125 -1.95703125 28.1953125 C-2.36953125 26.7721875 -2.78203125 25.3490625 -3.20703125 23.8828125 C-4.18903158 20.93217943 -4.73393934 19.41840441 -6.95703125 17.1953125 C-11.62624992 14.86070316 -16.04166562 14.25918592 -21.0859375 15.87890625 C-24.69133281 17.47909091 -26.63933103 18.74854656 -28.95703125 22.0078125 C-30.53776789 27.04641055 -30.44751294 30.66936948 -28.83203125 35.6953125 C-23.7570371 45.16863491 -15.90593546 49.76204923 -6.95703125 55.1953125 C7.7025407 64.14536695 21.92162328 73.97949015 27.04296875 91.1953125 C29.78328635 102.6899333 28.10710473 114.11763112 22.35546875 124.3828125 C16.30424123 133.74957745 8.99200138 139.91637173 -1.8046875 143.01171875 C-12.10430716 145.16934658 -22.36442182 143.93179371 -31.61328125 138.796875 C-39.48259634 133.41950969 -44.44837484 126.44751998 -48.95703125 118.1953125 C-49.50617188 117.31359375 -50.0553125 116.431875 -50.62109375 115.5234375 C-51.95703125 113.1953125 -51.95703125 113.1953125 -51.95703125 111.1953125 C-32.89071537 109.70932865 -32.89071537 109.70932865 -28.578125 113.0234375 C-27.26953125 115.3828125 -27.26953125 115.3828125 -26.1875 117.859375 C-23.88284613 122.23455917 -19.48964837 123.73839985 -14.95703125 125.1953125 C-9.35821122 126.24764546 -3.86192549 124.99510191 1.04296875 122.1953125 C6.97833973 116.39183865 9.1906027 110.99675503 9.54296875 102.8828125 C9.32619292 94.67360603 6.51535358 88.62951167 1.04296875 82.5703125 C-3.51050191 78.36180174 -8.8824343 75.34624333 -14.20898438 72.22460938 C-19.17642867 69.29964497 -24.067791 66.24859314 -28.95703125 63.1953125 C-29.64667969 62.77894531 -30.33632812 62.36257812 -31.046875 61.93359375 C-39.73136474 56.32116841 -46.03141642 47.00998979 -48.20703125 37.0078125 C-49.83629647 26.83180856 -48.4730551 17.84204197 -42.640625 9.2578125 C-32.64333462 -3.38181348 -14.44154827 -6.91839666 0 0 Z " fill="#1A1918" transform="translate(145.95703125,142.8046875)"/>
<path d="M0 0 C0 0.66 0 1.32 0 2 C-1.36596486 2.91064324 -2.7426306 3.80710528 -4.15234375 4.6484375 C-6.11293154 5.95870814 -6.11293154 5.95870814 -7.62890625 8.0390625 C-10.43490476 11.35471001 -12.84089579 13.73841447 -17.31738281 14.28076172 C-21.07324125 14.36520224 -24.80544096 14.218809 -28.55834961 14.07543945 C-43.66520219 13.60338986 -55.92804986 19.60752791 -66.9296875 29.78515625 C-78.84267613 42.84006348 -81.7024571 57.81160477 -81.13183594 74.84570312 C-80.35415621 87.55356591 -73.55634479 99.43826718 -64.90625 108.453125 C-53.61378674 118.3492084 -41.25936468 122.62022734 -26.375 121.6875 C-25.39015625 121.60693359 -24.4053125 121.52636719 -23.390625 121.44335938 C-16.17397225 121.14988216 -16.17397225 121.14988216 -12.64941406 123.70214844 C-10.5390625 125.83984375 -10.5390625 125.83984375 -8.74072266 127.98022461 C-6.97478806 130.02925363 -5.24268327 131.38052755 -3 132.875 C-2.01 133.57625 -1.02 134.2775 0 135 C0 135.66 0 136.32 0 137 C-21.22048003 142.61866138 -42.30561321 143.60804497 -62.1640625 132.75390625 C-74.96777869 124.8353545 -84.95410601 115.37635874 -92 102 C-92.36738281 101.31808594 -92.73476563 100.63617188 -93.11328125 99.93359375 C-101.48610964 82.89698926 -102.7283401 62.93409623 -96.72753906 44.98535156 C-89.21058304 24.472638 -75.66475574 9.97034477 -55.9140625 0.6953125 C-51.07352919 -1.47037448 -46.20205136 -2.97374497 -41 -4 C-39.906875 -4.226875 -38.81375 -4.45375 -37.6875 -4.6875 C-24.87833165 -5.77302274 -11.94734821 -5.19449922 0 0 Z " fill="#1A1918" transform="translate(392,145)"/>
<path d="M0 0 C1.08864349 0.00539291 1.08864349 0.00539291 2.19927979 0.01089478 C2.96020432 0.01074875 3.72112885 0.01060272 4.50511169 0.01045227 C7.03202113 0.01115155 9.55885776 0.01894462 12.08575439 0.02676392 C13.83310404 0.02862804 15.58045421 0.03005197 17.32780457 0.03105164 C21.93591749 0.03487724 26.54399909 0.04470788 31.15209961 0.05575562 C35.85068335 0.06596883 40.54927214 0.07054906 45.24786377 0.07559204 C54.47379123 0.08633011 63.69968719 0.10392725 72.92559814 0.12442017 C72.92559814 5.73442017 72.92559814 11.34442017 72.92559814 17.12442017 C62.69559814 17.12442017 52.46559814 17.12442017 41.92559814 17.12442017 C41.92559814 59.69442017 41.92559814 102.26442017 41.92559814 146.12442017 C36.31559814 146.12442017 30.70559814 146.12442017 24.92559814 146.12442017 C24.92559814 103.55442017 24.92559814 60.98442017 24.92559814 17.12442017 C14.69559814 17.12442017 4.46559814 17.12442017 -6.07440186 17.12442017 C-6.09502686 14.50504517 -6.11565186 11.88567017 -6.13690186 9.18692017 C-6.14600586 8.36071167 -6.15510986 7.53450317 -6.16448975 6.68325806 C-6.1716413 4.83008258 -6.12468706 2.97692709 -6.07440186 1.12442017 C-4.37771979 -0.5722619 -2.26308167 0.00473024 0 0 Z " fill="#1A1918" transform="translate(177.07440185546875,139.87557983398438)"/>
<path d="M0 0 C3 1 3 1 4.359375 3.37890625 C5.04773438 4.95478516 5.04773438 4.95478516 5.75 6.5625 C6.27062012 7.73989746 6.79124023 8.91729492 7.32763672 10.13037109 C7.88525935 11.42017469 8.44270968 12.71005279 9 14 C9.57859454 15.31765755 10.15819509 16.63487378 10.73876953 17.95166016 C12.21949762 21.3161411 13.68830518 24.68568041 15.15393066 28.0567627 C16.92505516 32.12465058 18.71332103 36.18502075 20.5 40.24609375 C21.38061074 42.24998353 22.25847385 44.25508439 23.1328125 46.26171875 C25.74110762 52.22943196 28.4495894 58.14537556 31.21372986 64.04212952 C34.4972565 71.04896103 37.72592584 78.08044732 40.93676758 85.12084961 C41.61487908 86.60594524 42.29461743 88.09029891 42.97583008 89.57397461 C43.97576904 91.75211792 44.9708551 93.93241735 45.96484375 96.11328125 C46.27099106 96.77773758 46.57713837 97.44219391 46.89256287 98.12678528 C49 102.77179788 49 102.77179788 49 105 C42.4 105 35.8 105 29 105 C23.57677323 94.3733112 18.61841904 83.60513541 13.8125 72.6875 C13.10773255 71.09296161 12.40265568 69.49855994 11.69726562 67.90429688 C10.36892187 64.90096775 9.04219636 61.89693476 7.71728516 58.89208984 C5.82040645 54.59076083 3.91247358 50.29441743 2 46 C1.15268667 47.99785301 0.30612158 49.99602599 -0.53710938 51.99560547 C-1.26810152 53.7203926 -2.00650922 55.44205397 -2.75195312 57.16064453 C-4.49083505 61.20827514 -6.12117784 65.1785557 -7.3046875 69.42578125 C-10.0432631 78.79661505 -10.0432631 78.79661505 -13.73876953 81.06933594 C-17.15322272 82.52711799 -20.59278999 83.40200956 -24.22265625 84.140625 C-27.79306063 84.95291969 -29.976554 86.02505178 -33 88 C-33.66 88 -34.32 88 -35 88 C-32.77335874 81.03995038 -30.16450881 74.31449129 -27.375 67.5625 C-26.40174408 65.19034775 -25.42909429 62.81795323 -24.45703125 60.4453125 C-24.19294968 59.80152145 -23.9288681 59.15773041 -23.65678406 58.49443054 C-20.14412411 49.92492191 -16.67429207 41.33802532 -13.20123291 32.75241089 C-12.08102394 29.98329058 -10.96024105 27.21440313 -9.83935547 24.44555664 C-4.8958403 12.23236424 -4.8958403 12.23236424 0 0 Z " fill="#E5007C" transform="translate(61,140)"/>
<path d="M0 0 C5.94 0 11.88 0 18 0 C18 48.18 18 96.36 18 146 C12.06 146 6.12 146 0 146 C0 97.82 0 49.64 0 0 Z " fill="#1A1918" transform="translate(262,140)"/>
<path d="M0 0 C1.0828125 0.928125 1.0828125 0.928125 2.1875 1.875 C2.1875 2.535 2.1875 3.195 2.1875 3.875 C0.77210937 3.91367188 0.77210937 3.91367188 -0.671875 3.953125 C-13.87239316 4.53628042 -26.21371428 7.01827471 -35.76879883 16.89770508 C-41.45985211 23.67836675 -44.63817996 30.69980853 -47.75 38.9375 C-48.69169718 41.36781893 -49.64148891 43.79492137 -50.58984375 46.22265625 C-51.19687134 47.81605835 -51.19687134 47.81605835 -51.81616211 49.44165039 C-52.8125 51.875 -52.8125 51.875 -53.8125 52.875 C-55.22820123 52.96151611 -56.648095 52.98204904 -58.06640625 52.97265625 C-58.92041016 52.96943359 -59.77441406 52.96621094 -60.65429688 52.96289062 C-61.55212891 52.95451172 -62.44996094 52.94613281 -63.375 52.9375 C-64.27669922 52.93298828 -65.17839844 52.92847656 -66.10742188 52.92382812 C-68.34251314 52.91200225 -70.57747437 52.8955222 -72.8125 52.875 C-71.87246037 46.01654759 -69.28874513 40.06262602 -66.6875 33.6875 C-65.99527344 31.93469727 -65.99527344 31.93469727 -65.2890625 30.14648438 C-59.80206399 16.63248943 -53.17952841 4.23647133 -39.48828125 -2.05859375 C-26.00477515 -7.43231224 -12.78942771 -8.0615824 0 0 Z " fill="#E5007C" transform="translate(75.8125,233.125)"/>
<path d="M0 0 C1.84375 0.00390625 1.84375 0.00390625 4 1 C5.36735833 3.32390944 6.45007109 5.47568039 7.5 7.9375 C7.78230469 8.56462891 8.06460938 9.19175781 8.35546875 9.83789062 C10.72700045 15.16578876 12.83270964 20.5817741 15 26 C15.33 17.42 15.66 8.84 16 0 C18.31 0 20.62 0 23 0 C23 3.63 23 7.26 23 11 C23.66 11 24.32 11 25 11 C25.27457031 10.41734375 25.54914063 9.8346875 25.83203125 9.234375 C27.69578148 5.66893978 29.87228789 2.56288825 33 0 C36.875 -0.4375 36.875 -0.4375 40 0 C38.50923566 3.2826932 36.61379679 5.93077441 34.375 8.75 C33.74335938 9.54921875 33.11171875 10.3484375 32.4609375 11.171875 C31.97882813 11.77515625 31.49671875 12.3784375 31 13 C31.556875 14.010625 32.11375 15.02125 32.6875 16.0625 C33.00074219 16.63097656 33.31398437 17.19945312 33.63671875 17.78515625 C35.59780089 20.97121233 37.80107375 23.97495195 40 27 C40.03758423 25.82642944 40.03758423 25.82642944 40.07592773 24.62915039 C40.19149788 21.10675051 40.31439949 17.5846444 40.4375 14.0625 C40.47681641 12.83080078 40.51613281 11.59910156 40.55664062 10.33007812 C40.59853516 9.16025391 40.64042969 7.99042969 40.68359375 6.78515625 C40.72025146 5.70113525 40.75690918 4.61711426 40.79467773 3.50024414 C41 1 41 1 42 0 C43.63472882 -0.08700342 45.27314055 -0.10701063 46.91015625 -0.09765625 C48.39418945 -0.09282227 48.39418945 -0.09282227 49.90820312 -0.08789062 C50.94912109 -0.07951172 51.99003906 -0.07113281 53.0625 -0.0625 C54.62967773 -0.05573242 54.62967773 -0.05573242 56.22851562 -0.04882812 C58.8190666 -0.03699913 61.40950559 -0.02051689 64 0 C64 2.31 64 4.62 64 7 C58.72 7 53.44 7 48 7 C48 8.32 48 9.64 48 11 C51.63 11 55.26 11 59 11 C59 13.31 59 15.62 59 18 C55.37 18 51.74 18 48 18 C48 19.65 48 21.3 48 23 C53.28 23 58.56 23 64 23 C64 24.98 64 26.96 64 29 C59.71361767 29.22386695 55.43039318 29.38639029 51.13989258 29.49438477 C49.68356026 29.53942597 48.22763006 29.60068743 46.77270508 29.67895508 C34.70059092 30.31171749 34.70059092 30.31171749 30.44189453 27.02685547 C26 21.44119268 26 21.44119268 26 18 C25.01 18 24.02 18 23 18 C23 21.63 23 25.26 23 29 C18.38 29 13.76 29 9 29 C8.34 27.35 7.68 25.7 7 24 C3.37 24 -0.26 24 -4 24 C-4.99 26.475 -4.99 26.475 -6 29 C-7.98 29 -9.96 29 -12 29 C-11.37183114 25.22927988 -10.28064931 22.01407901 -8.75 18.515625 C-8.3065625 17.49855469 -7.863125 16.48148437 -7.40625 15.43359375 C-6.71015625 13.85771484 -6.71015625 13.85771484 -6 12.25 C-5.30390625 10.65091797 -5.30390625 10.65091797 -4.59375 9.01953125 C-1.14143991 1.14143991 -1.14143991 1.14143991 0 0 Z M1 11 C0.34 13.31 -0.32 15.62 -1 18 C0.65 18 2.3 18 4 18 C3.42547254 14.06924356 3.42547254 14.06924356 1 11 Z " fill="#1A1918" transform="translate(133,344)"/>
<path d="M0 0 C1.84375 0.00390625 1.84375 0.00390625 4 1 C5.36735833 3.32390944 6.45007109 5.47568039 7.5 7.9375 C7.78230469 8.56462891 8.06460937 9.19175781 8.35546875 9.83789062 C10.72700045 15.16578876 12.83270964 20.5817741 15 26 C15.33 17.42 15.66 8.84 16 0 C18.51625 -0.061875 21.0325 -0.12375 23.625 -0.1875 C24.40568848 -0.21481201 25.18637695 -0.24212402 25.99072266 -0.27026367 C30.72895222 -0.3261986 33.88338062 0.41860108 38 3 C40.61273686 6.03414603 41.00942592 7.47214842 40.9375 11.5 C39.93441978 15.24483282 38.6309397 17.19932226 36 20 C36.54140625 20.72316406 36.54140625 20.72316406 37.09375 21.4609375 C37.5578125 22.09257812 38.021875 22.72421875 38.5 23.375 C38.9640625 24.00148438 39.428125 24.62796875 39.90625 25.2734375 C41 27 41 27 41 29 C35.80156804 29.61676311 35.80156804 29.61676311 33 29 C31.39277099 27.33292735 30.34249722 25.61310756 29.1640625 23.625 C28.02831545 21.70367347 28.02831545 21.70367347 25.1875 21.0625 C24.465625 21.041875 23.74375 21.02125 23 21 C23 23.64 23 26.28 23 29 C18.38 29 13.76 29 9 29 C8.34 27.35 7.68 25.7 7 24 C3.37 24 -0.26 24 -4 24 C-4.99 26.475 -4.99 26.475 -6 29 C-7.98 29 -9.96 29 -12 29 C-11.37183114 25.22927988 -10.28064931 22.01407901 -8.75 18.515625 C-8.3065625 17.49855469 -7.863125 16.48148437 -7.40625 15.43359375 C-6.71015625 13.85771484 -6.71015625 13.85771484 -6 12.25 C-5.30390625 10.65091797 -5.30390625 10.65091797 -4.59375 9.01953125 C-1.14143991 1.14143991 -1.14143991 1.14143991 0 0 Z M23 7 C23 9.64 23 12.28 23 15 C28.7974423 15.24428343 28.7974423 15.24428343 34 13 C34.042721 11.33388095 34.04063832 9.66617115 34 8 C32.96593327 6.74050951 32.96593327 6.74050951 30.71484375 6.90234375 C29.79832031 6.91394531 28.88179688 6.92554688 27.9375 6.9375 C27.01839844 6.94652344 26.09929687 6.95554687 25.15234375 6.96484375 C24.44207031 6.97644531 23.73179687 6.98804688 23 7 Z M1 11 C0.34 13.31 -0.32 15.62 -1 18 C0.65 18 2.3 18 4 18 C3.42547254 14.06924356 3.42547254 14.06924356 1 11 Z " fill="#1A1918" transform="translate(446,344)"/>
<path d="M0 0 C3.320625 -0.061875 6.64125 -0.12375 10.0625 -0.1875 C11.09511963 -0.21481201 12.12773926 -0.24212402 13.19165039 -0.27026367 C20.09139588 -0.33215972 25.17726088 0.3258261 30.375 5.25 C32.40549984 8.68623049 32.93111658 11.00476136 33 15 C31.36990627 20.34308499 29.38728165 22.69875037 25 26 C25.5775 26.77085937 26.155 27.54171875 26.75 28.3359375 C27.4925 29.33882813 28.235 30.34171875 29 31.375 C30.11375 32.87160156 30.11375 32.87160156 31.25 34.3984375 C33 37 33 37 33 39 C29.46451781 39.70425098 26.50195756 39.9564818 23 39 C20.84699679 36.32282498 19.3620563 33.53840434 17.73828125 30.515625 C16.24008967 27.87241746 16.24008967 27.87241746 13.79296875 27.046875 C11.3444586 26.73071915 11.3444586 26.73071915 8 27 C8 30.96 8 34.92 8 39 C5.36 39 2.72 39 0 39 C0 26.13 0 13.26 0 0 Z M8 8 C8 11.63 8 15.26 8 19 C10.29141286 19.05384521 12.58318188 19.09272087 14.875 19.125 C16.15117187 19.14820313 17.42734375 19.17140625 18.7421875 19.1953125 C22.08593338 19.35641524 22.08593338 19.35641524 24 17 C24.28602162 12.85490567 24.28602162 12.85490567 23 9 C19.71480525 7.90493508 17.26336585 7.90039392 13.8125 7.9375 C12.72582031 7.94652344 11.63914062 7.95554687 10.51953125 7.96484375 C9.68808594 7.97644531 8.85664063 7.98804688 8 8 Z " fill="#1A1918" transform="translate(301,298)"/>
<path d="M0 0 C5.67436209 1.96023418 9.1713557 5.58357717 12.75 10.3125 C15.0389288 15.23369691 15.30331692 19.40069259 14.3125 24.625 C11.91236078 30.79678658 9.00482949 34.74215281 3.265625 38.015625 C-2.74570957 40.62744623 -8.16928762 40.60998818 -14.3125 38.4375 C-20.10452133 35.81881531 -22.52065815 32.21901277 -26 27 C-27.71385506 20.58270812 -26.98516189 14.90143543 -24 9 C-17.16837945 0.73014354 -10.26946444 -0.74026284 0 0 Z M-16 12 C-18.52013745 15.48018981 -18.36793894 18.80549604 -18 23 C-16.0976625 27.54447291 -13.31646551 29.71481238 -9 32 C-5.03593282 32.66067786 -3.38049922 32.20144076 0.1875 30.3125 C4.21922828 26.99752342 5.77457609 24.77118784 6.4375 19.5625 C5.91894272 15.33996212 4.66649168 13.2759755 2 10 C-3.87173006 6.08551329 -11.23122086 6.63512346 -16 12 Z " fill="#1A1918" transform="translate(262,298)"/>
<path d="M0 0 C7.1465625 -0.0309375 7.1465625 -0.0309375 14.4375 -0.0625 C15.9423999 -0.071604 17.4472998 -0.08070801 18.99780273 -0.09008789 C20.17286377 -0.09258545 21.3479248 -0.09508301 22.55859375 -0.09765625 C24.37315063 -0.10551147 24.37315063 -0.10551147 26.22436523 -0.11352539 C29 0 29 0 30 1 C30 3.31 30 5.62 30 8 C22.74 8 15.48 8 8 8 C8 10.31 8 12.62 8 15 C12.95 15 17.9 15 23 15 C23 17.64 23 20.28 23 23 C18.05 23 13.1 23 8 23 C8 25.64 8 28.28 8 31 C15.26 31 22.52 31 30 31 C30 33.64 30 36.28 30 39 C20.1 39 10.2 39 0 39 C0 26.13 0 13.26 0 0 Z " fill="#1A1918" transform="translate(358,298)"/>
<path d="M0 0 C1.90197174 1.19892147 3.65963947 2.42784598 5.375 3.87890625 C3.6015625 7.69921875 3.6015625 7.69921875 1.5625 9.31640625 C0.4796875 9.59484375 0.4796875 9.59484375 -0.625 9.87890625 C-1.3675 9.42515625 -2.11 8.97140625 -2.875 8.50390625 C-6.7159006 6.23428317 -9.20036697 6.58876638 -13.625 6.87890625 C-14.615 7.37390625 -14.615 7.37390625 -15.625 7.87890625 C-15.625 9.19890625 -15.625 10.51890625 -15.625 11.87890625 C-14.45582031 12.10964844 -13.28664062 12.34039062 -12.08203125 12.578125 C-10.53364561 12.90657044 -8.98547961 13.23605247 -7.4375 13.56640625 C-6.66857422 13.71529297 -5.89964844 13.86417969 -5.10742188 14.01757812 C0.04331417 15.14499245 3.0745561 16.50857385 6.375 20.87890625 C7.29457468 23.98923239 7.04890471 26.7210222 6.375 29.87890625 C3.46616001 34.94591785 0.36613616 36.91340314 -5.23046875 38.47265625 C-11.76553234 39.58137829 -17.15160408 38.00210221 -22.99609375 35.109375 C-24.9771278 33.61291043 -25.67898657 32.14648618 -26.625 29.87890625 C-24.975 28.55890625 -23.325 27.23890625 -21.625 25.87890625 C-17.625 27.87890625 -17.625 27.87890625 -15.8125 29.00390625 C-11.95718796 30.54603107 -8.17624035 30.36877162 -4.25 29.12890625 C-2.18606644 27.54126505 -2.14053879 26.36562277 -1.625 23.87890625 C-2.17438232 23.78915527 -2.72376465 23.6994043 -3.28979492 23.60693359 C-5.80246417 23.18148849 -8.30672014 22.71814264 -10.8125 22.25390625 C-11.67681641 22.11339844 -12.54113281 21.97289062 -13.43164062 21.828125 C-17.71553379 21.00745581 -20.76281826 20.31139731 -23.69921875 16.94921875 C-26.08514016 13.14529537 -26.41323097 11.29299969 -25.625 6.87890625 C-19.97031195 -1.68390708 -9.52207501 -4.06671954 0 0 Z " fill="#1A1918" transform="translate(151.625,299.12109375)"/>
<path d="M0 0 C2.51625 -0.061875 5.0325 -0.12375 7.625 -0.1875 C8.79603271 -0.22846802 8.79603271 -0.22846802 9.99072266 -0.27026367 C15.56730025 -0.33609532 19.67863081 0.83338876 23.875 4.75 C25.54486097 8.08972194 25.50867676 10.3120935 25 14 C23.53486642 16.3248821 21.93784577 18.01370809 20 20 C20.3609375 20.48210937 20.721875 20.96421875 21.09375 21.4609375 C21.5578125 22.09257812 22.021875 22.72421875 22.5 23.375 C22.9640625 24.00148438 23.428125 24.62796875 23.90625 25.2734375 C25 27 25 27 25 29 C19.75065617 29.52493438 19.75065617 29.52493438 17 29 C13 24.4 13 24.4 13 21 C11.02 21 9.04 21 7 21 C7 23.64 7 26.28 7 29 C4.69 29 2.38 29 0 29 C0 19.43 0 9.86 0 0 Z M7 7 C7 9.64 7 12.28 7 15 C12.84289311 15.33952428 12.84289311 15.33952428 18 13 C18.33 12.01 18.66 11.02 19 10 C18.34 9.01 17.68 8.02 17 7 C14.56306689 6.63583953 14.56306689 6.63583953 11.875 6.8125 C10.96492188 6.83957031 10.05484375 6.86664063 9.1171875 6.89453125 C8.41851562 6.92933594 7.71984375 6.96414063 7 7 Z " fill="#1A1918" transform="translate(56,344)"/>
<path d="M0 0 C9.9 0 19.8 0 30 0 C30 2.64 30 5.28 30 8 C26.37 8 22.74 8 19 8 C19 18.23 19 28.46 19 39 C16.36 39 13.72 39 11 39 C11 28.77 11 18.54 11 8 C7.37 8 3.74 8 0 8 C0 5.36 0 2.72 0 0 Z " fill="#1A1918" transform="translate(182,298)"/>
<path d="M0 0 C3.33768349 2.27569329 6.03976545 4.18031609 7.75 7.875 C8.66986584 12.85472485 8.99540683 17.64916653 6.46484375 22.171875 C3.51947171 25.67447959 1.40856707 27.70505603 -3.26171875 28.18359375 C-14.41151489 28.57460679 -14.41151489 28.57460679 -18.5 25.25 C-22.34067542 21.09896697 -23.25 17.57386425 -23.25 11.9375 C-22.49144285 7.17595449 -19.83241832 3.97920323 -16.25 0.875 C-11.10185391 -2.26818859 -5.56600134 -1.92669277 0 0 Z M-15.25 8.875 C-16.67662219 11.72824437 -16.56033868 13.70954549 -16.25 16.875 C-14.45006226 19.57490662 -13.166227 21.4168865 -10.25 22.875 C-6.21633723 23.4128217 -4.73380174 23.24053909 -1.4375 20.75 C1.02479759 17.51383746 1.83284788 15.93454592 1.75 11.875 C-0.49721141 7.6329186 -0.49721141 7.6329186 -4.25 4.875 C-9.36519005 4.30664555 -11.57841583 5.30831824 -15.25 8.875 Z " fill="#1A1918" transform="translate(46.25,345.125)"/>
<path d="M0 0 C7.26 0 14.52 0 22 0 C22 2.31 22 4.62 22 7 C17.05 7 12.1 7 7 7 C7 8.32 7 9.64 7 11 C10.63 11 14.26 11 18 11 C18 13.31 18 15.62 18 18 C14.37 18 10.74 18 7 18 C7 19.65 7 21.3 7 23 C11.95 23 16.9 23 22 23 C22 24.98 22 26.96 22 29 C14.74 29 7.48 29 0 29 C0 19.43 0 9.86 0 0 Z " fill="#1A1918" transform="translate(488,344)"/>
<path d="M0 0 C3.2917475 1.64587375 4.79705157 2.5529926 7.234375 5.0390625 C8.09482422 5.90917969 8.09482422 5.90917969 8.97265625 6.796875 C9.55917969 7.40015625 10.14570313 8.0034375 10.75 8.625 C11.35199219 9.23601562 11.95398438 9.84703125 12.57421875 10.4765625 C14.05405305 11.97988624 15.52764676 13.48934856 17 15 C17.33 10.05 17.66 5.1 18 0 C20.31 0 22.62 0 25 0 C25 9.57 25 19.14 25 29 C21.09568954 28.02392239 20.36519805 27.73615399 17.765625 25.05859375 C17.19199219 24.47529297 16.61835938 23.89199219 16.02734375 23.29101562 C15.44082031 22.67935547 14.85429687 22.06769531 14.25 21.4375 C13.64800781 20.82197266 13.04601562 20.20644531 12.42578125 19.57226562 C10.94365619 18.05485187 9.4709033 16.52829404 8 15 C7.67 19.62 7.34 24.24 7 29 C4.69 29 2.38 29 0 29 C0 19.43 0 9.86 0 0 Z " fill="#1A1918" transform="translate(369,344)"/>
<path d="M0 0 C3.84281736 1.92140868 5.80431927 3.5926816 8.75 6.625 C9.54921875 7.44226563 10.3484375 8.25953125 11.171875 9.1015625 C12.07679687 10.04128906 12.07679687 10.04128906 13 11 C16.39458023 8.15324828 19.74672619 5.32845827 22.8125 2.125 C25 0 25 0 27 0 C27 9.57 27 19.14 27 29 C24.69 29 22.38 29 20 29 C19.67 24.38 19.34 19.76 19 15 C17.02 16.65 15.04 18.3 13 20 C11.35 18.35 9.7 16.7 8 15 C7.67 19.62 7.34 24.24 7 29 C5.02 29 3.04 29 1 29 C0.67 19.43 0.34 9.86 0 0 Z " fill="#1A1918" transform="translate(92,344)"/>
<path d="M0 0 C2.5 1.6875 2.5 1.6875 3.5 4.6875 C2.84 4.6875 2.18 4.6875 1.5 4.6875 C1.5 5.3475 1.5 6.0075 1.5 6.6875 C0.51 7.0175 -0.48 7.3475 -1.5 7.6875 C-2.49 7.0275 -3.48 6.3675 -4.5 5.6875 C-6.55709596 5.44694532 -6.55709596 5.44694532 -8.6875 5.5625 C-9.945625 5.60375 -11.20375 5.645 -12.5 5.6875 C-12.5 6.6775 -12.5 7.6675 -12.5 8.6875 C-11.16195313 8.94273437 -11.16195313 8.94273437 -9.796875 9.203125 C-8.62640625 9.44546875 -7.4559375 9.6878125 -6.25 9.9375 C-4.50976562 10.28554688 -4.50976562 10.28554688 -2.734375 10.640625 C0.7611627 11.77203092 2.26631487 12.80864853 4.5 15.6875 C5.16974422 19.62224728 4.85110528 21.16084208 2.625 24.5 C-0.01725969 27.21997321 -0.78768791 27.64055421 -4.58203125 27.890625 C-6.42861328 27.91382813 -6.42861328 27.91382813 -8.3125 27.9375 C-10.14748047 27.97617187 -10.14748047 27.97617187 -12.01953125 28.015625 C-15.69335454 27.66927129 -17.54424837 26.82690118 -20.5 24.6875 C-20.17 23.3675 -19.84 22.0475 -19.5 20.6875 C-17.1875 20.0625 -17.1875 20.0625 -14.5 19.6875 C-13.51 20.3475 -12.52 21.0075 -11.5 21.6875 C-7.35223727 21.97412433 -7.35223727 21.97412433 -3.5 20.6875 C-3.17 19.6975 -2.84 18.7075 -2.5 17.6875 C-3.30824219 17.58953125 -4.11648438 17.4915625 -4.94921875 17.390625 C-16.17069486 15.82043051 -16.17069486 15.82043051 -19.5 11.6875 C-20.5625 8.75 -20.5625 8.75 -20.5 5.6875 C-15.69043438 -2.15031064 -8.20112666 -3.0754225 0 0 Z " fill="#1A1918" transform="translate(323.5,345.3125)"/>
<path d="M0 0 C1.98 0 3.96 0 6 0 C7.58272601 1.58272601 7.34735747 3.38034003 7.5625 5.5625 C7.64628906 6.38878906 7.73007812 7.21507812 7.81640625 8.06640625 C7.87699219 8.70449219 7.93757813 9.34257812 8 10 C8.85271484 8.9171875 8.85271484 8.9171875 9.72265625 7.8125 C15.95429789 0.32204594 15.95429789 0.32204594 19.15625 -0.6640625 C21.0625 -0.625 21.0625 -0.625 24 0 C22.19465363 4.10555926 19.46177661 6.82078231 16.36328125 10 C14.82339566 11.85320245 14.82339566 11.85320245 15.0078125 13.86328125 C16.44198614 16.9518363 18.4676304 19.52801011 20.5625 22.1875 C25 27.89093323 25 27.89093323 25 29 C21.84076252 29.56866275 19.13528713 29.76980221 16 29 C13.34306215 26.34306215 11.56722681 23.40487707 10 20 C10 19.34 10 18.68 10 18 C9.01 18 8.02 18 7 18 C7 21.63 7 25.26 7 29 C4.69 29 2.38 29 0 29 C0 19.43 0 9.86 0 0 Z " fill="#1A1918" transform="translate(330,344)"/>
<path d="M0 0 C16.71150926 -0.44366839 16.71150926 -0.44366839 22 3 C24.44634179 5.87179253 24.47369804 9.32065442 24.390625 13.03125 C23.71800064 16.42127675 21.64712896 17.96848242 19 20 C15.98509443 21.00496852 13.95818308 21.10335303 10.8125 21.0625 C9.91144531 21.05347656 9.01039063 21.04445313 8.08203125 21.03515625 C7.39496094 21.02355469 6.70789063 21.01195312 6 21 C6 23.64 6 26.28 6 29 C4.02 29 2.04 29 0 29 C0 19.43 0 9.86 0 0 Z M6 7 C6 9.64 6 12.28 6 15 C11.57830016 15.12469099 11.57830016 15.12469099 17 14 C17.67958603 11.60280568 17.67958603 11.60280568 18 9 C16.18806994 6.75675164 16.18806994 6.75675164 13.6171875 6.8046875 C12.71226562 6.82789063 11.80734375 6.85109375 10.875 6.875 C9.96492187 6.89304687 9.05484375 6.91109375 8.1171875 6.9296875 C7.41851562 6.95289063 6.71984375 6.97609375 6 7 Z " fill="#1A1918" transform="translate(231,344)"/>
<path d="M0 0 C1.98 0 3.96 0 6 0 C6.02187378 0.83192871 6.02187378 0.83192871 6.04418945 1.68066406 C6.11886897 4.20446242 6.21546025 6.72696654 6.3125 9.25 C6.33505859 10.12269531 6.35761719 10.99539063 6.38085938 11.89453125 C6.55443721 18.0532778 6.55443721 18.0532778 10 23 C12.3431213 22.74438677 14.67843403 22.40729228 17 22 C18.17469444 19.65061112 18.20034889 18.04926795 18.31640625 15.4296875 C18.35830078 14.53378906 18.40019531 13.63789063 18.44335938 12.71484375 C18.48267578 11.77769531 18.52199219 10.84054687 18.5625 9.875 C18.60568359 8.93011719 18.64886719 7.98523438 18.69335938 7.01171875 C18.79959072 4.67462908 18.90163176 2.3374317 19 0 C21.31 0 23.62 0 26 0 C26.08774066 3.20815845 26.14063706 6.41600462 26.1875 9.625 C26.21263672 10.52863281 26.23777344 11.43226563 26.26367188 12.36328125 C26.33241163 18.64151179 25.7888821 23.13804675 21.2109375 27.8359375 C18.26412816 29.38743782 15.94722744 29.53981468 12.625 29.625 C11.52414063 29.67914063 10.42328125 29.73328125 9.2890625 29.7890625 C5.25384916 28.82099469 3.6309543 27.50171096 1.12939453 24.25488281 C-1.06318057 19.87731609 -0.61769494 15.34483487 -0.375 10.5625 C-0.34792969 9.54478516 -0.32085937 8.52707031 -0.29296875 7.47851562 C-0.22268507 4.98344487 -0.12437201 2.49286153 0 0 Z " fill="#1A1918" transform="translate(201,344)"/>
<path d="M0 0 C3 1.375 3 1.375 5 3 C5 3.66 5 4.32 5 5 C0.87831311 6.62950412 -1.70700357 7.26264601 -6 6 C-6.33 7.65 -6.66 9.3 -7 11 C-5.35 11 -3.7 11 -2 11 C-2 12.98 -2 14.96 -2 17 C-3.98 17.33 -5.96 17.66 -8 18 C-8 19.65 -8 21.3 -8 23 C-4.71303767 23.79953138 -3.28976808 24.09658936 0 23 C0.66 19.04 1.32 15.08 2 11 C4.97 11 7.94 11 11 11 C11 12.65 11 14.3 11 16 C10.01 16 9.02 16 8 16 C7.9071875 17.8253125 7.9071875 17.8253125 7.8125 19.6875 C7.38120073 22.76118976 6.8643239 24.2325876 5.25 27 C0.21691694 30.09728188 -5.24387085 30.06594984 -11 29 C-13.45568121 27.15420015 -14.75087565 26.00434383 -15.49609375 23 C-15.33307296 17.43555694 -15.33307296 17.43555694 -13.375 14.875 C-12.92125 14.25625 -12.4675 13.6375 -12 13 C-12.33 12.030625 -12.66 11.06125 -13 10.0625 C-14 7 -14 7 -12.8125 4.25 C-9.16823481 -0.2739154 -5.51021811 -0.718258 0 0 Z " fill="#1A1918" transform="translate(282,344)"/>
<path d="M0 0 C3.51400008 1.27781821 5.37890963 2.01190169 7.375 5.1875 C7.58125 5.785625 7.7875 6.38375 8 7 C7.01 7.99 6.02 8.98 5 10 C3 9 1 8 -1 7 C-4.20371381 6.72141619 -6.37084049 6.71092671 -9.3125 8.0625 C-11.82814308 10.95083094 -11.93488709 13.22345138 -12 17 C-10.65437601 19.94755732 -9.91445456 21.54277272 -7 23 C-2.32818984 23.41527201 0.17508513 22.69993991 4 20 C5.32 20.99 6.64 21.98 8 23 C6.63016497 26.16115776 6.0109362 26.9927092 3 29 C-2.44464514 29.71136067 -8.33920952 30.25264487 -13.40625 27.8671875 C-17.11969437 24.86181515 -19.21803449 21.78953875 -20 17 C-19.74712531 12.19538095 -18.91181366 8.84775377 -16 5 C-10.5847095 0.24511078 -7.08551027 -0.66687155 0 0 Z " fill="#1A1918" transform="translate(425,344)"/>
<path d="M0 0 C7.26 0 14.52 0 22 0 C22 2.31 22 4.62 22 7 C16.72 7 11.44 7 6 7 C6 8.32 6 9.64 6 11 C9.63 11 13.26 11 17 11 C17 13.31 17 15.62 17 18 C13.37 18 9.74 18 6 18 C6 21.63 6 25.26 6 29 C4.02 29 2.04 29 0 29 C0 19.43 0 9.86 0 0 Z " fill="#1A1918" transform="translate(2,344)"/>
<path d="M0 0 C2.31 0 4.62 0 7 0 C7 9.57 7 19.14 7 29 C4.69 29 2.38 29 0 29 C0 19.43 0 9.86 0 0 Z " fill="#1A1918" transform="translate(357,344)"/>
</svg>
